<?xml version="1.0" encoding="utf-8"?>
<!-- Generator: Adobe Illustrator 21.1.0, SVG Export Plug-In . SVG Version: 6.00 Build 0)  -->
<svg version="1.1" id="圖層_1" xmlns="http://www.w3.org/2000/svg" xmlns:xlink="http://www.w3.org/1999/xlink" x="0px" y="0px"
	 viewBox="0 0 100 13" style="enable-background:new 0 0 100 13;" xml:space="preserve">
<style type="text/css">
	.st0{fill:#FFFFFF;}
</style>
<g>
	<path class="st0" d="M0,0.1c0.3,1.1,1.3,2.3,2.6,2.6h4.1l0.2,0.1v10.3h2.5V2.8l0.2-0.1h4.1c1.4-0.4,2.3-1.5,2.6-2.6
		C16.3,0.1,0,0.1,0,0.1z M77.8,13.1c1.3-0.5,2-1.5,2.2-2.6H68.7V-0.1h-2.5v13h11.6V13.1z M47.3,2.6h9c1.3-0.4,2.5-1.4,2.7-2.6H44.8
		v7.7h11.6v2.7h-9.1c-1.4,0.4-2.6,1.4-3.2,2.6H59V5.2H47.3V2.6z M85.4,5.2v7.8H88V7.9h9.1v5.2h2.6V5.2 M25.2,2.6h9.7
		c1.3-0.3,2.4-1.5,2.6-2.6h-15C22.9,1.2,23.9,2.3,25.2,2.6 M25.2,7.9h9.7c1.3-0.3,2.4-1.5,2.6-2.6h-15C22.9,6.4,23.9,7.6,25.2,7.9
		 M25.2,13.1h9.7c1.3-0.3,2.4-1.5,2.6-2.6h-15C22.9,11.6,23.9,12.8,25.2,13.1 M87.7,2.6h9.7c1.3-0.3,2.4-1.5,2.6-2.6H85
		C85.3,1.2,86.3,2.5,87.7,2.6"/>
</g>
</svg>
